<svg width="100" height="100" fill="none" xmlns="http://www.w3.org/2000/svg"><g filter="url(#filter0_i_0_591)"><rect width="100" height="100" rx="10" fill="#B296FF"/><rect width="100" height="100" rx="10" fill="url(#paint0_linear_0_591)" fill-opacity=".4"/><rect x=".5" y=".5" width="99" height="99" rx="9.5" stroke="url(#paint1_linear_0_591)" stroke-opacity=".4"/><path d="M61.62 68.073c.922 0 1.757.377 2.36.985a3.37 3.37 0 01.977 2.378 3.37 3.37 0 01-.977 2.379 3.314 3.314 0 01-4.719 0 3.366 3.366 0 01-.827-1.381H39.9c-.162.528-.45 1-.827 1.38l-.065.06a3.31 3.31 0 01-4.653-.06 3.37 3.37 0 01-.977-2.378c0-.928.374-1.77.977-2.378a3.314 3.314 0 014.714 0c.38.38.669.853.831 1.38h8.277v-2.304c0-.55.444-.998.99-.998s.989.447.989.998v2.305h8.277c.162-.528.45-1.001.827-1.381a3.316 3.316 0 012.36-.985zm.96 2.396a1.35 1.35 0 00-1.92 0 1.373 1.373 0 000 1.935 1.351 1.351 0 001.92 0 1.372 1.372 0 000-1.936zm-24.904-.001a1.35 1.35 0 00-1.921 0c-.245.247-.397.59-.397.968s.152.721.397.968a1.35 1.35 0 001.901.02 1.379 1.379 0 00.02-1.956zm11.492-19.4a.994.994 0 01-.99-.998c0-.55.444-.997.99-.997h5.344c.546 0 .989.447.989.997s-.443.998-.99.998h-5.343zm-7.94 0a.994.994 0 01-.989-.998c0-.55.444-.997.99-.997h.214c.546 0 .99.447.99.997s-.444.998-.99.998h-.214zm17.331 0a.994.994 0 01-.989-.998c0-.55.443-.997.99-.997h.213c.547 0 .99.447.99.997s-.443.998-.99.998h-.214zm-19.797-6.085H61.24c.875 0 1.67.36 2.246.94a3.21 3.21 0 01.931 2.264v3.765a3.21 3.21 0 01-.931 2.265c-.575.58-1.37.94-2.246.94H38.762c-.873 0-1.668-.36-2.243-.942a3.192 3.192 0 01-.934-2.263v-3.765c0-.883.357-1.685.932-2.264l.065-.06a3.149 3.149 0 012.18-.88zm22.478 1.995H38.762c-.313 0-.597.12-.827.335a1.233 1.233 0 00-.371.874v3.765c0 .333.135.636.352.854.214.221.514.355.846.355H61.24c.33 0 .63-.136.847-.355.216-.218.352-.521.352-.854v-3.765c0-.332-.136-.635-.352-.854a1.192 1.192 0 00-.847-.355zM49.168 62.81a.994.994 0 01-.99-.997c0-.55.444-.998.99-.998h5.344c.546 0 .989.447.989.998 0 .55-.443.997-.99.997h-5.343zm-7.94 0a.994.994 0 01-.989-.997c0-.55.444-.998.99-.998h.214c.546 0 .99.447.99.998 0 .55-.444.997-.99.997h-.214zm17.331 0a.994.994 0 01-.989-.997c0-.55.443-.998.99-.998h.213c.547 0 .99.447.99.998 0 .55-.443.997-.99.997h-.214zm5.858-1.995h5.27c3.123 0 5.953-1.278 8-3.342A11.425 11.425 0 0081 49.405a11.367 11.367 0 00-3.724-8.462 11.272 11.272 0 00-7.596-2.947c-.376 0-.737.017-1.08.048a.988.988 0 01-1.105-.727 16.396 16.396 0 00-5.814-8.75 16.08 16.08 0 00-9.868-3.367c-3.267 0-6.307.97-8.849 2.64a16.412 16.412 0 00-6.006 7.112.989.989 0 01-1.117.568 5.732 5.732 0 00-1.904-.1 5.754 5.754 0 00-3.163 1.433 5.822 5.822 0 00-1.8 3.068 5.901 5.901 0 00-.092 1.93l.003.124a.99.99 0 01-.997.982l-.233-.003c-2.329.002-4.46 1.011-6.025 2.6-1.571 1.596-2.57 3.776-2.63 6.109v.223c0 2.465.992 4.698 2.594 6.313a8.79 8.79 0 006.26 2.615h7.731v-.885c0-.883.357-1.685.932-2.265l.065-.06a3.149 3.149 0 012.18-.88H61.24a3.16 3.16 0 012.242.94c.579.58.935 1.383.935 2.265v.885zM61.24 58.72H38.762c-.313 0-.597.12-.827.334a1.233 1.233 0 00-.371.875v3.765c0 .33.135.635.352.853.214.22.514.355.846.355H61.24a1.203 1.203 0 001.199-1.208v-3.765c0-.33-.136-.636-.352-.854a1.183 1.183 0 00-.847-.355z" fill="#252742"/></g><defs><linearGradient id="paint0_linear_0_591" x1="0" y1="0" x2="105.837" y2="6.615" gradientUnits="userSpaceOnUse"><stop stop-color="#fff" stop-opacity="0"/><stop offset=".497" stop-color="#fff"/><stop offset="1" stop-color="#fff" stop-opacity="0"/></linearGradient><linearGradient id="paint1_linear_0_591" x1="0" y1="0" x2="115" y2="121.667" gradientUnits="userSpaceOnUse"><stop stop-color="#fff"/><stop offset="1" stop-color="#fff" stop-opacity=".25"/></linearGradient><filter id="filter0_i_0_591" x="0" y="0" width="100" height="104" filterUnits="userSpaceOnUse" color-interpolation-filters="sRGB"><feFlood flood-opacity="0" result="BackgroundImageFix"/><feBlend in="SourceGraphic" in2="BackgroundImageFix" result="shape"/><feColorMatrix in="SourceAlpha" values="0 0 0 0 0 0 0 0 0 0 0 0 0 0 0 0 0 0 127 0" result="hardAlpha"/><feOffset dy="4"/><feGaussianBlur stdDeviation="5"/><feComposite in2="hardAlpha" operator="arithmetic" k2="-1" k3="1"/><feColorMatrix values="0 0 0 0 0 0 0 0 0 0 0 0 0 0 0 0 0 0 0.3 0"/><feBlend in2="shape" result="effect1_innerShadow_0_591"/></filter></defs></svg>