<svg width="56" height="56" fill="none" xmlns="http://www.w3.org/2000/svg"><rect width="56" height="56" rx="10" fill="url(#paint0_linear_0_33)" fill-opacity=".4"/><rect x=".5" y=".5" width="55" height="55" rx="9.5" stroke="url(#paint1_linear_0_33)" stroke-opacity=".4"/><path d="M15 34.818c0 .844.342 1.653.952 2.25.61.597 1.436.932 2.298.932h19.5c.862 0 1.689-.335 2.298-.932.61-.597.952-1.406.952-2.25v-8.75H15v8.75zm3.83-4.318c0-.452.184-.886.51-1.205.327-.32.77-.5 1.231-.5h2.786c.462 0 .905.18 1.231.5.327.32.51.753.51 1.205v1.136c0 .452-.183.886-.51 1.206-.326.32-.77.499-1.23.499H20.57a1.76 1.76 0 01-1.23-.5 1.687 1.687 0 01-.51-1.205V30.5zM37.75 18h-19.5c-.862 0-1.689.335-2.298.932a3.148 3.148 0 00-.952 2.25v1.477h26v-1.477c0-.844-.342-1.653-.952-2.25A3.286 3.286 0 0037.75 18z" fill="#fff"/><defs><linearGradient id="paint0_linear_0_33" x1="0" y1="0" x2="64.4" y2="68.133" gradientUnits="userSpaceOnUse"><stop stop-color="#fff"/><stop offset="1" stop-color="#fff" stop-opacity=".25"/></linearGradient><linearGradient id="paint1_linear_0_33" x1="0" y1="0" x2="64.4" y2="68.133" gradientUnits="userSpaceOnUse"><stop stop-color="#fff"/><stop offset="1" stop-color="#fff" stop-opacity=".25"/></linearGradient></defs></svg>