<svg width="56" height="56" fill="none" xmlns="http://www.w3.org/2000/svg"><rect width="56" height="56" rx="10" fill="url(#paint0_linear_0_46)" fill-opacity=".4"/><rect x=".5" y=".5" width="55" height="55" rx="9.5" stroke="url(#paint1_linear_0_46)" stroke-opacity=".4"/><path d="M21.5 37c-1.792 0-3.324-.623-4.594-1.87-1.27-1.247-1.905-2.771-1.906-4.572 0-1.544.463-2.92 1.389-4.127.925-1.207 2.137-1.979 3.634-2.315.492-1.821 1.477-3.296 2.954-4.424C24.454 18.564 26.13 18 28 18c2.305 0 4.26.807 5.865 2.42 1.606 1.613 2.408 3.578 2.408 5.892 1.359.159 2.487.748 3.383 1.767.897 1.02 1.345 2.212 1.344 3.577 0 1.485-.517 2.747-1.55 3.786-1.034 1.04-2.29 1.559-3.768 1.558H21.5z" fill="#fff"/><defs><linearGradient id="paint0_linear_0_46" x1="0" y1="0" x2="64.4" y2="68.133" gradientUnits="userSpaceOnUse"><stop stop-color="#fff"/><stop offset="1" stop-color="#fff" stop-opacity=".25"/></linearGradient><linearGradient id="paint1_linear_0_46" x1="0" y1="0" x2="64.4" y2="68.133" gradientUnits="userSpaceOnUse"><stop stop-color="#fff"/><stop offset="1" stop-color="#fff" stop-opacity=".25"/></linearGradient></defs></svg>