<svg width="56" height="56" fill="none" xmlns="http://www.w3.org/2000/svg"><rect width="56" height="56" rx="10" fill="url(#paint0_linear_0_39)" fill-opacity=".4"/><rect x=".5" y=".5" width="55" height="55" rx="9.5" stroke="url(#paint1_linear_0_39)" stroke-opacity=".4"/><g clip-path="url(#clip0_0_39)"><path d="M30.864 16.614a8.53 8.53 0 00-8.107 11.162l-6.133 6.132a.85.85 0 00-.249.603v4.262a.852.852 0 00.852.852h4.262a.852.852 0 00.852-.852v-1.705h1.704a.852.852 0 00.853-.852V34.51h1.704a.852.852 0 00.603-.249l1.019-1.02a8.522 8.522 0 102.64-16.628zm2.13 8.096a1.705 1.705 0 110-3.409 1.705 1.705 0 010 3.41z" fill="#fff"/></g><defs><linearGradient id="paint0_linear_0_39" x1="0" y1="0" x2="64.4" y2="68.133" gradientUnits="userSpaceOnUse"><stop stop-color="#fff"/><stop offset="1" stop-color="#fff" stop-opacity=".25"/></linearGradient><linearGradient id="paint1_linear_0_39" x1="0" y1="0" x2="64.4" y2="68.133" gradientUnits="userSpaceOnUse"><stop stop-color="#fff"/><stop offset="1" stop-color="#fff" stop-opacity=".25"/></linearGradient><clipPath id="clip0_0_39"><path fill="#fff" transform="translate(16 16)" d="M0 0h24v24H0z"/></clipPath></defs></svg>