<svg width="100" height="100" fill="none" xmlns="http://www.w3.org/2000/svg"><g filter="url(#filter0_i_0_546)"><rect width="100" height="100" rx="10" fill="#B296FF"/><rect width="100" height="100" rx="10" fill="url(#paint0_linear_0_546)" fill-opacity=".4"/><rect x=".5" y=".5" width="99" height="99" rx="9.5" stroke="url(#paint1_linear_0_546)" stroke-opacity=".4"/><path d="M28.346 28.346v25.262h43.307V28.346H28.346zm-.901 27.067h-4.512v7.217c0 1.99 1.62 3.61 3.61 3.61h18c-.214 3.578-1.703 5.413-4.467 5.413h-1.807a2.708 2.708 0 00-2.704 2.705v1.806c0 .499.404.902.902.902h27.066a.902.902 0 00.903-.902v-1.806a2.708 2.708 0 00-2.705-2.705h-1.806c-2.765 0-4.254-1.835-4.468-5.413h18c1.99 0 3.61-1.62 3.61-3.61v-7.217H27.445zm19.848 2.707c0-.5.404-.903.903-.903h3.608a.902.902 0 110 1.805h-2.706v1.804h2.706a.902.902 0 110 1.805h-3.608a.902.902 0 01-.903-.903V58.12zm8.237 13.533H44.47c1.11-1.23 1.765-3.063 1.896-5.413h7.267c.132 2.35.786 4.183 1.897 5.413z" fill="#252742"/><path d="M73.457 22.933H26.543c-1.99 0-3.61 1.62-3.61 3.61V53.61h3.61V27.444c0-.498.403-.902.902-.902h45.11c.499 0 .903.403.903.902V53.61h3.609V26.543c0-1.99-1.62-3.61-3.61-3.61z" fill="#252742"/></g><defs><linearGradient id="paint0_linear_0_546" x1="0" y1="0" x2="105.837" y2="6.615" gradientUnits="userSpaceOnUse"><stop stop-color="#fff" stop-opacity="0"/><stop offset=".497" stop-color="#fff"/><stop offset="1" stop-color="#fff" stop-opacity="0"/></linearGradient><linearGradient id="paint1_linear_0_546" x1="0" y1="0" x2="115" y2="121.667" gradientUnits="userSpaceOnUse"><stop stop-color="#fff"/><stop offset="1" stop-color="#fff" stop-opacity=".25"/></linearGradient><filter id="filter0_i_0_546" x="0" y="0" width="100" height="104" filterUnits="userSpaceOnUse" color-interpolation-filters="sRGB"><feFlood flood-opacity="0" result="BackgroundImageFix"/><feBlend in="SourceGraphic" in2="BackgroundImageFix" result="shape"/><feColorMatrix in="SourceAlpha" values="0 0 0 0 0 0 0 0 0 0 0 0 0 0 0 0 0 0 127 0" result="hardAlpha"/><feOffset dy="4"/><feGaussianBlur stdDeviation="5"/><feComposite in2="hardAlpha" operator="arithmetic" k2="-1" k3="1"/><feColorMatrix values="0 0 0 0 0 0 0 0 0 0 0 0 0 0 0 0 0 0 0.3 0"/><feBlend in2="shape" result="effect1_innerShadow_0_546"/></filter></defs></svg>