<svg width="100" height="100" fill="none" xmlns="http://www.w3.org/2000/svg"><g filter="url(#filter0_i_0_441)"><rect width="100" height="100" rx="10" fill="#B296FF"/><rect width="100" height="100" rx="10" fill="url(#paint0_linear_0_441)" fill-opacity=".4"/><rect x=".5" y=".5" width="99" height="99" rx="9.5" stroke="url(#paint1_linear_0_441)" stroke-opacity=".4"/><path fill-rule="evenodd" clip-rule="evenodd" d="M50 44.375c4.65 0 8.438-3.788 8.438-8.438 0-4.668-3.788-8.437-8.438-8.437s-8.438 3.769-8.438 8.438c0 4.65 3.788 8.437 8.438 8.437zm12.694 9.112c.262.338.506.675.731 1.032 1.612 2.494 2.513 5.512 2.513 8.606v7.5a2.809 2.809 0 01-2.813 2.813h-26.25a2.809 2.809 0 01-2.813-2.813v-7.5c0-3.056.9-6.075 2.532-8.606.262-.394.525-.769.806-1.125a15.771 15.771 0 013.019-3A15.798 15.798 0 0150 47.188c3.487 0 6.825 1.106 9.563 3.206.6.431 1.162.919 1.706 1.462.6.6 1.05 1.106 1.425 1.631zm13.556-17.55c0 4.65-3.787 8.438-8.438 8.438-4.65 0-8.437-3.788-8.437-8.438a8.438 8.438 0 0116.875.001zm.938 33.75A2.809 2.809 0 0080 66.876v-7.5c0-3.244-1.256-6.3-3.58-8.644a12.144 12.144 0 00-8.607-3.544c-2.081 0-4.088.526-5.85 1.5.431.357.862.75 1.294 1.182.75.75 1.275 1.35 1.725 1.987.243.319.543.731.825 1.163 1.893 2.925 2.943 6.525 2.943 10.106v6.563h8.438zm-39.132-21a18.664 18.664 0 00-2.868 2.963c-.32.413-.638.844-.957 1.35a18.632 18.632 0 00-2.981 10.125v6.563h-8.438A2.809 2.809 0 0120 66.874v-7.5c0-6.712 5.475-12.188 12.188-12.188 2.08 0 4.087.526 5.868 1.5zm-5.868-4.312c4.65 0 8.437-3.788 8.437-8.438a8.438 8.438 0 00-16.875.001c0 4.65 3.788 8.437 8.438 8.437z" fill="#252742"/></g><defs><linearGradient id="paint0_linear_0_441" x1="0" y1="0" x2="105.837" y2="6.615" gradientUnits="userSpaceOnUse"><stop stop-color="#fff" stop-opacity="0"/><stop offset=".497" stop-color="#fff"/><stop offset="1" stop-color="#fff" stop-opacity="0"/></linearGradient><linearGradient id="paint1_linear_0_441" x1="0" y1="0" x2="115" y2="121.667" gradientUnits="userSpaceOnUse"><stop stop-color="#fff"/><stop offset="1" stop-color="#fff" stop-opacity=".25"/></linearGradient><filter id="filter0_i_0_441" x="0" y="0" width="100" height="104" filterUnits="userSpaceOnUse" color-interpolation-filters="sRGB"><feFlood flood-opacity="0" result="BackgroundImageFix"/><feBlend in="SourceGraphic" in2="BackgroundImageFix" result="shape"/><feColorMatrix in="SourceAlpha" values="0 0 0 0 0 0 0 0 0 0 0 0 0 0 0 0 0 0 127 0" result="hardAlpha"/><feOffset dy="4"/><feGaussianBlur stdDeviation="5"/><feComposite in2="hardAlpha" operator="arithmetic" k2="-1" k3="1"/><feColorMatrix values="0 0 0 0 0 0 0 0 0 0 0 0 0 0 0 0 0 0 0.3 0"/><feBlend in2="shape" result="effect1_innerShadow_0_441"/></filter></defs></svg>