<svg width="76" height="76" fill="none" xmlns="http://www.w3.org/2000/svg"><path fill="#252742" d="M11 10h57v58H11z"/><path d="M59.76 0H16.24C7.28 0 0 7.28 0 16.24v43.52C0 68.72 7.28 76 16.24 76h43.52C68.72 76 76 68.72 76 59.76V16.24C76 7.28 68.72 0 59.76 0zM38 15.28c6.24 0 11.28 5.04 11.28 11.28 0 6.24-5.04 11.28-11.28 11.28-6.24 0-11.28-5.04-11.28-11.28 0-6.24 5.04-11.28 11.28-11.28zm21.36 42.24c0 1.76-1.44 3.12-3.12 3.12h-36.4c-1.76 0-3.12-1.44-3.12-3.12v-6.24c0-.96.48-1.84 1.2-2.48 4.56-3.76 11.92-6.16 20.08-6.16 8.24 0 15.52 2.4 20.16 6.16.72.64 1.2 1.52 1.2 2.48v6.24z" fill="#000"/><path d="M59.76 0H16.24C7.28 0 0 7.28 0 16.24v43.52C0 68.72 7.28 76 16.24 76h43.52C68.72 76 76 68.72 76 59.76V16.24C76 7.28 68.72 0 59.76 0zM38 15.28c6.24 0 11.28 5.04 11.28 11.28 0 6.24-5.04 11.28-11.28 11.28-6.24 0-11.28-5.04-11.28-11.28 0-6.24 5.04-11.28 11.28-11.28zm21.36 42.24c0 1.76-1.44 3.12-3.12 3.12h-36.4c-1.76 0-3.12-1.44-3.12-3.12v-6.24c0-.96.48-1.84 1.2-2.48 4.56-3.76 11.92-6.16 20.08-6.16 8.24 0 15.52 2.4 20.16 6.16.72.64 1.2 1.52 1.2 2.48v6.24z" fill="#B296FF"/><path d="M59.76 0H16.24C7.28 0 0 7.28 0 16.24v43.52C0 68.72 7.28 76 16.24 76h43.52C68.72 76 76 68.72 76 59.76V16.24C76 7.28 68.72 0 59.76 0zM38 15.28c6.24 0 11.28 5.04 11.28 11.28 0 6.24-5.04 11.28-11.28 11.28-6.24 0-11.28-5.04-11.28-11.28 0-6.24 5.04-11.28 11.28-11.28zm21.36 42.24c0 1.76-1.44 3.12-3.12 3.12h-36.4c-1.76 0-3.12-1.44-3.12-3.12v-6.24c0-.96.48-1.84 1.2-2.48 4.56-3.76 11.92-6.16 20.08-6.16 8.24 0 15.52 2.4 20.16 6.16.72.64 1.2 1.52 1.2 2.48v6.24z" fill="url(#paint0_linear_2005_28)" fill-opacity=".4"/><defs><linearGradient id="paint0_linear_2005_28" x1="0" y1="0" x2="80.436" y2="5.027" gradientUnits="userSpaceOnUse"><stop stop-color="#fff" stop-opacity="0"/><stop offset=".497" stop-color="#fff"/><stop offset="1" stop-color="#fff" stop-opacity="0"/></linearGradient></defs></svg>