<svg width="100" height="100" fill="none" xmlns="http://www.w3.org/2000/svg"><g filter="url(#filter0_i_0_493)"><rect width="100" height="100" rx="10" fill="#B296FF"/><rect width="100" height="100" rx="10" fill="url(#paint0_linear_0_493)" fill-opacity=".4"/><rect x=".5" y=".5" width="99" height="99" rx="9.5" stroke="url(#paint1_linear_0_493)" stroke-opacity=".4"/><path d="M56.049 25H43.947L41.68 36.545h16.633L56.05 25zM20.003 38.966l25.619 32.266-6.45-32.266H20.004zm21.674 0l6.953 36.056.402.506c.233.29.589.472.968.472.38 0 .735-.181.968-.472l.397-.5 6.953-36.062h-16.64zM54.373 71.24l25.624-32.274H60.824l-6.45 32.273zM41.503 25h-11.74c-.38 0-.735.17-.968.46L20 36.545h19.173L41.503 25zM80 36.545L71.193 25.46a1.237 1.237 0 00-.968-.46H58.492l2.33 11.545H80z" fill="#252742"/></g><defs><linearGradient id="paint0_linear_0_493" x1="0" y1="0" x2="105.837" y2="6.615" gradientUnits="userSpaceOnUse"><stop stop-color="#fff" stop-opacity="0"/><stop offset=".497" stop-color="#fff"/><stop offset="1" stop-color="#fff" stop-opacity="0"/></linearGradient><linearGradient id="paint1_linear_0_493" x1="0" y1="0" x2="115" y2="121.667" gradientUnits="userSpaceOnUse"><stop stop-color="#fff"/><stop offset="1" stop-color="#fff" stop-opacity=".25"/></linearGradient><filter id="filter0_i_0_493" x="0" y="0" width="100" height="104" filterUnits="userSpaceOnUse" color-interpolation-filters="sRGB"><feFlood flood-opacity="0" result="BackgroundImageFix"/><feBlend in="SourceGraphic" in2="BackgroundImageFix" result="shape"/><feColorMatrix in="SourceAlpha" values="0 0 0 0 0 0 0 0 0 0 0 0 0 0 0 0 0 0 127 0" result="hardAlpha"/><feOffset dy="4"/><feGaussianBlur stdDeviation="5"/><feComposite in2="hardAlpha" operator="arithmetic" k2="-1" k3="1"/><feColorMatrix values="0 0 0 0 0 0 0 0 0 0 0 0 0 0 0 0 0 0 0.3 0"/><feBlend in2="shape" result="effect1_innerShadow_0_493"/></filter></defs></svg>